{"title":"Footloose (1984) Kevin Bacon + Chris Penn (DVDrip,MULTISUBS)","uid":4464648,"size":749726717,"categoryP":"video","categoryS":"movies","magnet":"?xt=urn:btih:f309c43dc4ae2404df994ee16d3a11693c414b1f&amp;dn=Footloose+%281984%29+Kevin+Bacon+%2B+Chris+Penn+%28DVDrip%2CMULTISUBS%29&amp;tr=udp%3A%2F%2Ftracker.openbittorrent.com%3A80&amp;tr=udp%3A%2F%2Fopen.demonii.com%3A1337&amp;tr=udp%3A%2F%2Ftracker.coppersurfer.tk%3A6969&amp;tr=udp%3A%2F%2Fexodus.desync.com%3A6969","seeders":4,"leechers":0,"uploader":"Kuthumi","files":-1,"time":1224862300,"description":" &lt;a href=&quot;http://www.imdb.com/title/tt0087277/&quot; rel=&quot;nofollow&quot; target=&quot;_NEW&quot;&gt;http://www.imdb.com/title/tt0087277/&lt;/a&gt;\n\nOptional subtitles in separate idx/sub files:\nArabic, Bulgarian, Croatian (Hrvatski), Czech, Danish, Dutch, English (ordinary), English for the hearing impaired, Finnish, French, German, Greek, Hebrew, Hungarian, Icelandic, Italian, Norwegian, Polish, Portugese, Romanian, Slovanian, Spanish, Swedish, Turkish\n\nClassic with Kevin Bacon (then 26) as a good dancer in one of his first feature films. Also memorable for showing Chris Penn (then 22) as a young, fit man; Sean Penn's younger brother died in 2006. \n\nWidescreen 720x384, surprisingly good stereo sound for a 1984 production.\nBurn tested, runs well in both my standalone DivX player.\n\nThis is an improved rip of the torrent I uploaded in May 2008. The film turned out to be so popular that I thought it deserves a better rip with all available subtitles. The old rip was just 528x304 pixels.\n\nMediaInfo analysis of this new rip:\n\nFormat/Info                      : Audio Video Interleave\nFile size                        : 695 MiB\nDuration                         : 1h 42mn\nOveral bit rate                  : 945 Kbps\n\nVideo\nFormat                           : MPEG-4 Visual\nFormat profile                   : Streaming Video@L1\nFormat settings, BVOP            : Yes\nFormat settings, QPel            : No\nFormat settings, GMC             : No warppoints\nFormat settings, Matrix          : Default\nMuxing mode                      : Packet Bitstream\nCodec ID                         : XVID\nCodec ID/Hint                    : XviD\nDuration                         : 1h 42mn\nBit rate                         : 807 Kbps\nWidth                            : 720 pixels\nHeight                           : 384 pixels\nDisplay aspect ratio             : 1.875\nFrame rate                       : 25.000 fps\nResolution                       : 8 bits\nColorimetry                      : 4:2:0\nScan type                        : Progressive\nBits/(Pixel*Frame)               : 0.117\nStream size                      : 593 MiB\nWriting library                  : XviD 1.2.0.dev47 (UTC 2006-11-01)\n\nAudio\nFormat                           : MPEG Audio\nFormat version                   : Version 1\nFormat profile                   : Layer 3\nCodec ID                         : 55\nCodec ID/Hint                    : MP3\nDuration                         : 1h 42mn\nBit rate mode                    : Constant\nBit rate                         : 128 Kbps\nMinimum bit rate                 : 128 Kbps\nChannel(s)                       : 2 channels\nSampling rate                    : 48.0 KHz\nResolution                       : 16 bits\nStream size                      : 94.1 MiB\nWriting library                  : LAME3.97 \nEncoding settings                : CBR\n\nSource: PAL native 7 GiB (note that PAL/NTSC will give no problems for avi \nfiles).\n","torrent":{"xt":"urn:btih:f309c43dc4ae2404df994ee16d3a11693c414b1f","amp;dn":"Footloose+%281984%29+Kevin+Bacon+%2B+Chris+Penn+%28DVDrip%2CMULTISUBS%29","amp;tr":["udp%3A%2F%2Ftracker.openbittorrent.com%3A80","udp%3A%2F%2Fopen.demonii.com%3A1337","udp%3A%2F%2Ftracker.coppersurfer.tk%3A6969","udp%3A%2F%2Fexodus.desync.com%3A6969"],"infoHash":"f309c43dc4ae2404df994ee16d3a11693c414b1f","infoHashBuffer":{"type":"Buffer","data":[243,9,196,61,196,174,36,4,223,153,78,225,109,58,17,105,60,65,75,31]},"announce":[],"urlList":[]}}